<svg width="491" height="96" viewBox="0 0 491 96" fill="none" xmlns="http://www.w3.org/2000/svg">
<path d="M72.2727 43.6484L70.5852 45.5V50H66.4719V32.9375H70.5852V40.4609L72.0148 38.293L75.6945 32.9375H80.7805L75.0148 40.4844L80.7805 50H75.9055L72.2727 43.6484ZM91.7633 43.9766H89.5367V50H85.4234V32.9375H92.1383C94.1617 32.9375 95.7438 33.3867 96.8844 34.2852C98.025 35.1836 98.5953 36.4531 98.5953 38.0938C98.5953 39.2812 98.3531 40.2656 97.8688 41.0469C97.3922 41.8281 96.6422 42.4609 95.6188 42.9453L99.1813 49.8242V50H94.775L91.7633 43.9766ZM89.5367 40.8008H92.1383C92.9195 40.8008 93.5055 40.5977 93.8961 40.1914C94.2945 39.7773 94.4938 39.2031 94.4938 38.4688C94.4938 37.7344 94.2945 37.1602 93.8961 36.7461C93.4977 36.3242 92.9117 36.1133 92.1383 36.1133H89.5367V40.8008ZM109.297 46.8359H117.453V50H104.164V47.832L112.297 36.1133H104.117V32.9375H117.371V35.0469L109.297 46.8359ZM129.174 40.3438L132.315 32.9375H136.756L131.26 43.8711V50H127.088V43.8711L121.604 32.9375H126.022L129.174 40.3438ZM150.212 45.4648C150.212 44.8633 149.997 44.3945 149.567 44.0586C149.145 43.7227 148.399 43.375 147.329 43.0156C146.259 42.6562 145.384 42.3086 144.704 41.9727C142.493 40.8867 141.388 39.3945 141.388 37.4961C141.388 36.5508 141.661 35.7188 142.208 35C142.763 34.2734 143.544 33.7109 144.552 33.3125C145.559 32.9062 146.692 32.7031 147.95 32.7031C149.177 32.7031 150.274 32.9219 151.243 33.3594C152.22 33.7969 152.977 34.4219 153.516 35.2344C154.055 36.0391 154.325 36.9609 154.325 38H150.223C150.223 37.3047 150.009 36.7656 149.579 36.3828C149.157 36 148.583 35.8086 147.856 35.8086C147.122 35.8086 146.54 35.9727 146.11 36.3008C145.688 36.6211 145.477 37.0312 145.477 37.5312C145.477 37.9688 145.712 38.3672 146.18 38.7266C146.649 39.0781 147.473 39.4453 148.653 39.8281C149.833 40.2031 150.802 40.6094 151.559 41.0469C153.403 42.1094 154.325 43.5742 154.325 45.4414C154.325 46.9336 153.763 48.1055 152.638 48.957C151.513 49.8086 149.97 50.2344 148.009 50.2344C146.626 50.2344 145.372 49.9883 144.247 49.4961C143.13 48.9961 142.286 48.3164 141.716 47.457C141.153 46.5898 140.872 45.5938 140.872 44.4688H144.997C144.997 45.3828 145.231 46.0586 145.7 46.4961C146.177 46.9258 146.946 47.1406 148.009 47.1406C148.688 47.1406 149.223 46.9961 149.614 46.707C150.013 46.4102 150.212 45.9961 150.212 45.4648ZM164.652 46.8359H172.808V50H159.519V47.832L167.652 36.1133H159.472V32.9375H172.726V35.0469L164.652 46.8359ZM191.677 36.1133H186.556V50H182.443V36.1133H177.416V32.9375H191.677V36.1133ZM211.145 41.8203C211.145 43.4844 210.836 44.957 210.219 46.2383C209.602 47.5195 208.723 48.5078 207.582 49.2031C206.449 49.8906 205.156 50.2344 203.703 50.2344C202.25 50.2344 200.961 49.9023 199.836 49.2383C198.711 48.5664 197.832 47.6094 197.199 46.3672C196.574 45.125 196.246 43.6992 196.215 42.0898V41.1289C196.215 39.457 196.52 37.9844 197.129 36.7109C197.746 35.4297 198.625 34.4414 199.766 33.7461C200.914 33.0508 202.219 32.7031 203.68 32.7031C205.125 32.7031 206.414 33.0469 207.547 33.7344C208.68 34.4219 209.559 35.4023 210.184 36.6758C210.816 37.9414 211.137 39.3945 211.145 41.0352V41.8203ZM206.961 41.1055C206.961 39.4102 206.676 38.125 206.105 37.25C205.543 36.3672 204.734 35.9258 203.68 35.9258C201.617 35.9258 200.527 37.4727 200.41 40.5664L200.398 41.8203C200.398 43.4922 200.676 44.7773 201.23 45.6758C201.785 46.5742 202.609 47.0234 203.703 47.0234C204.742 47.0234 205.543 46.582 206.105 45.6992C206.668 44.8164 206.953 43.5469 206.961 41.8906V41.1055ZM227.612 43.2031H220.979V50H216.866V32.9375H228.28V36.1133H220.979V40.0391H227.612V43.2031ZM251.968 45.4648C251.968 44.8633 251.753 44.3945 251.323 44.0586C250.902 43.7227 250.155 43.375 249.085 43.0156C248.015 42.6562 247.14 42.3086 246.46 41.9727C244.249 40.8867 243.144 39.3945 243.144 37.4961C243.144 36.5508 243.417 35.7188 243.964 35C244.519 34.2734 245.3 33.7109 246.308 33.3125C247.316 32.9062 248.448 32.7031 249.706 32.7031C250.933 32.7031 252.03 32.9219 252.999 33.3594C253.976 33.7969 254.734 34.4219 255.273 35.2344C255.812 36.0391 256.081 36.9609 256.081 38H251.98C251.98 37.3047 251.765 36.7656 251.335 36.3828C250.913 36 250.339 35.8086 249.613 35.8086C248.878 35.8086 248.296 35.9727 247.866 36.3008C247.445 36.6211 247.234 37.0312 247.234 37.5312C247.234 37.9688 247.468 38.3672 247.937 38.7266C248.405 39.0781 249.23 39.4453 250.409 39.8281C251.589 40.2031 252.558 40.6094 253.316 41.0469C255.159 42.1094 256.081 43.5742 256.081 45.4414C256.081 46.9336 255.519 48.1055 254.394 48.957C253.269 49.8086 251.726 50.2344 249.765 50.2344C248.382 50.2344 247.128 49.9883 246.003 49.4961C244.886 48.9961 244.042 48.3164 243.472 47.457C242.909 46.5898 242.628 45.5938 242.628 44.4688H246.753C246.753 45.3828 246.988 46.0586 247.456 46.4961C247.933 46.9258 248.702 47.1406 249.765 47.1406C250.445 47.1406 250.98 46.9961 251.37 46.707C251.769 46.4102 251.968 45.9961 251.968 45.4648ZM266.408 46.8359H274.564V50H261.275V47.832L269.408 36.1133H261.228V32.9375H274.482V35.0469L266.408 46.8359ZM285.84 43.6484L284.152 45.5V50H280.039V32.9375H284.152V40.4609L285.582 38.293L289.262 32.9375H294.348L288.582 40.4844L294.348 50H289.473L285.84 43.6484ZM312.373 32.9375V44.1055C312.373 45.3711 312.104 46.4688 311.565 47.3984C311.026 48.3203 310.252 49.0234 309.245 49.5078C308.237 49.9922 307.045 50.2344 305.67 50.2344C303.592 50.2344 301.955 49.6953 300.76 48.6172C299.565 47.5391 298.955 46.0625 298.932 44.1875V32.9375H303.069V44.2695C303.116 46.1367 303.983 47.0703 305.67 47.0703C306.522 47.0703 307.166 46.8359 307.604 46.3672C308.041 45.8984 308.26 45.1367 308.26 44.082V32.9375H312.373ZM318.552 50V32.9375H324.048C325.555 32.9375 326.911 33.2812 328.114 33.9688C329.317 34.6484 330.255 35.6133 330.927 36.8633C331.606 38.1055 331.95 39.5 331.958 41.0469V41.832C331.958 43.3945 331.626 44.7969 330.962 46.0391C330.305 47.2734 329.376 48.2422 328.173 48.9453C326.977 49.6406 325.641 49.9922 324.165 50H318.552ZM322.665 36.1133V46.8359H324.095C325.274 46.8359 326.18 46.418 326.813 45.582C327.446 44.7383 327.763 43.4883 327.763 41.832V41.0938C327.763 39.4453 327.446 38.2031 326.813 37.3672C326.18 36.5312 325.259 36.1133 324.048 36.1133H322.665ZM341.78 46.8359H348.941V50H337.667V32.9375H341.78V46.8359ZM364.201 46.8125H358.564L357.58 50H353.185L359.443 32.9375H363.31L369.615 50H365.197L364.201 46.8125ZM359.548 43.6367H363.216L361.377 37.7188L359.548 43.6367ZM380.809 43.9766H378.582V50H374.469V32.9375H381.184C383.207 32.9375 384.789 33.3867 385.93 34.2852C387.07 35.1836 387.641 36.4531 387.641 38.0938C387.641 39.2812 387.398 40.2656 386.914 41.0469C386.438 41.8281 385.688 42.4609 384.664 42.9453L388.227 49.8242V50H383.82L380.809 43.9766ZM378.582 40.8008H381.184C381.965 40.8008 382.551 40.5977 382.941 40.1914C383.34 39.7773 383.539 39.2031 383.539 38.4688C383.539 37.7344 383.34 37.1602 382.941 36.7461C382.543 36.3242 381.957 36.1133 381.184 36.1133H378.582V40.8008ZM404.307 42.7695H397.838V46.8359H405.479V50H393.725V32.9375H405.502V36.1133H397.838V39.7109H404.307V42.7695ZM416.555 43.6484L414.868 45.5V50H410.755V32.9375H414.868V40.4609L416.298 38.293L419.977 32.9375H425.063L419.298 40.4844L425.063 50H420.188L416.555 43.6484Z" fill="#2E2F31"/>
<path d="M174.563 77.3125L177.006 69.4902H178.078L177.867 71.0459L175.38 79H174.334L174.563 77.3125ZM172.919 69.4902L175.002 77.4004L175.152 79H174.053L171.293 69.4902H172.919ZM180.416 77.3389L182.403 69.4902H184.02L181.26 79H180.17L180.416 77.3389ZM178.316 69.4902L180.706 77.1807L180.979 79H179.942L177.384 71.0283L177.173 69.4902H178.316ZM192.336 79.1758C191.674 79.1758 191.073 79.0645 190.534 78.8418C190.001 78.6133 189.541 78.2939 189.154 77.8838C188.773 77.4736 188.48 76.9873 188.275 76.4248C188.07 75.8623 187.968 75.2471 187.968 74.5791V74.21C187.968 73.4365 188.082 72.748 188.311 72.1445C188.539 71.5352 188.85 71.0195 189.242 70.5977C189.635 70.1758 190.08 69.8564 190.578 69.6396C191.076 69.4229 191.592 69.3145 192.125 69.3145C192.805 69.3145 193.391 69.4316 193.883 69.666C194.381 69.9004 194.788 70.2285 195.104 70.6504C195.421 71.0664 195.655 71.5586 195.808 72.127C195.96 72.6895 196.036 73.3047 196.036 73.9727V74.7021H188.935V73.375H194.41V73.252C194.387 72.8301 194.299 72.4199 194.146 72.0215C194 71.623 193.766 71.2949 193.443 71.0371C193.121 70.7793 192.682 70.6504 192.125 70.6504C191.756 70.6504 191.416 70.7295 191.105 70.8877C190.795 71.04 190.528 71.2686 190.306 71.5732C190.083 71.8779 189.91 72.25 189.787 72.6895C189.664 73.1289 189.603 73.6357 189.603 74.21V74.5791C189.603 75.0303 189.664 75.4551 189.787 75.8535C189.916 76.2461 190.101 76.5918 190.341 76.8906C190.587 77.1895 190.883 77.4238 191.229 77.5938C191.58 77.7637 191.979 77.8486 192.424 77.8486C192.998 77.8486 193.484 77.7314 193.883 77.4971C194.281 77.2627 194.63 76.9492 194.929 76.5566L195.913 77.3389C195.708 77.6494 195.447 77.9453 195.131 78.2266C194.814 78.5078 194.425 78.7363 193.962 78.9121C193.505 79.0879 192.963 79.1758 192.336 79.1758ZM200.626 65.5H202.261V77.1543L202.12 79H200.626V65.5ZM208.685 74.166V74.3506C208.685 75.042 208.603 75.6836 208.439 76.2754C208.275 76.8613 208.035 77.3711 207.719 77.8047C207.402 78.2383 207.015 78.5752 206.558 78.8154C206.101 79.0557 205.577 79.1758 204.985 79.1758C204.382 79.1758 203.851 79.0732 203.394 78.8682C202.943 78.6572 202.562 78.3555 202.252 77.9629C201.941 77.5703 201.692 77.0957 201.505 76.5391C201.323 75.9824 201.197 75.3555 201.127 74.6582V73.8496C201.197 73.1465 201.323 72.5166 201.505 71.96C201.692 71.4033 201.941 70.9287 202.252 70.5361C202.562 70.1377 202.943 69.8359 203.394 69.6309C203.846 69.4199 204.37 69.3145 204.968 69.3145C205.565 69.3145 206.096 69.4316 206.558 69.666C207.021 69.8945 207.408 70.2227 207.719 70.6504C208.035 71.0781 208.275 71.5908 208.439 72.1885C208.603 72.7803 208.685 73.4395 208.685 74.166ZM207.051 74.3506V74.166C207.051 73.6914 207.007 73.2461 206.919 72.8301C206.831 72.4082 206.69 72.0391 206.497 71.7227C206.304 71.4004 206.049 71.1484 205.732 70.9668C205.416 70.7793 205.026 70.6855 204.563 70.6855C204.153 70.6855 203.796 70.7559 203.491 70.8965C203.192 71.0371 202.937 71.2275 202.726 71.4678C202.515 71.7021 202.343 71.9717 202.208 72.2764C202.079 72.5752 201.982 72.8857 201.918 73.208V75.3262C202.012 75.7363 202.164 76.1318 202.375 76.5127C202.592 76.8877 202.879 77.1953 203.236 77.4355C203.599 77.6758 204.048 77.7959 204.581 77.7959C205.02 77.7959 205.395 77.708 205.706 77.5322C206.022 77.3506 206.277 77.1016 206.471 76.7852C206.67 76.4688 206.816 76.1025 206.91 75.6865C207.004 75.2705 207.051 74.8252 207.051 74.3506ZM226.601 77.1543V65.5H228.236V79H226.742L226.601 77.1543ZM220.203 74.3506V74.166C220.203 73.4395 220.29 72.7803 220.466 72.1885C220.648 71.5908 220.903 71.0781 221.231 70.6504C221.565 70.2227 221.96 69.8945 222.417 69.666C222.88 69.4316 223.396 69.3145 223.964 69.3145C224.562 69.3145 225.083 69.4199 225.529 69.6309C225.98 69.8359 226.361 70.1377 226.671 70.5361C226.988 70.9287 227.237 71.4033 227.418 71.96C227.6 72.5166 227.726 73.1465 227.796 73.8496V74.6582C227.732 75.3555 227.606 75.9824 227.418 76.5391C227.237 77.0957 226.988 77.5703 226.671 77.9629C226.361 78.3555 225.98 78.6572 225.529 78.8682C225.078 79.0732 224.55 79.1758 223.947 79.1758C223.39 79.1758 222.88 79.0557 222.417 78.8154C221.96 78.5752 221.565 78.2383 221.231 77.8047C220.903 77.3711 220.648 76.8613 220.466 76.2754C220.29 75.6836 220.203 75.042 220.203 74.3506ZM221.837 74.166V74.3506C221.837 74.8252 221.884 75.2705 221.978 75.6865C222.078 76.1025 222.23 76.4688 222.435 76.7852C222.64 77.1016 222.901 77.3506 223.217 77.5322C223.534 77.708 223.912 77.7959 224.351 77.7959C224.89 77.7959 225.332 77.6816 225.678 77.4531C226.03 77.2246 226.311 76.9229 226.522 76.5479C226.733 76.1729 226.897 75.7656 227.014 75.3262V73.208C226.944 72.8857 226.841 72.5752 226.706 72.2764C226.578 71.9717 226.408 71.7021 226.197 71.4678C225.992 71.2275 225.737 71.0371 225.432 70.8965C225.133 70.7559 224.779 70.6855 224.369 70.6855C223.923 70.6855 223.539 70.7793 223.217 70.9668C222.901 71.1484 222.64 71.4004 222.435 71.7227C222.23 72.0391 222.078 72.4082 221.978 72.8301C221.884 73.2461 221.837 73.6914 221.837 74.166ZM237.413 79.1758C236.751 79.1758 236.151 79.0645 235.612 78.8418C235.078 78.6133 234.618 78.2939 234.232 77.8838C233.851 77.4736 233.558 76.9873 233.353 76.4248C233.148 75.8623 233.045 75.2471 233.045 74.5791V74.21C233.045 73.4365 233.159 72.748 233.388 72.1445C233.616 71.5352 233.927 71.0195 234.32 70.5977C234.712 70.1758 235.157 69.8564 235.655 69.6396C236.154 69.4229 236.669 69.3145 237.202 69.3145C237.882 69.3145 238.468 69.4316 238.96 69.666C239.458 69.9004 239.865 70.2285 240.182 70.6504C240.498 71.0664 240.733 71.5586 240.885 72.127C241.037 72.6895 241.113 73.3047 241.113 73.9727V74.7021H234.012V73.375H239.488V73.252C239.464 72.8301 239.376 72.4199 239.224 72.0215C239.077 71.623 238.843 71.2949 238.521 71.0371C238.198 70.7793 237.759 70.6504 237.202 70.6504C236.833 70.6504 236.493 70.7295 236.183 70.8877C235.872 71.04 235.606 71.2686 235.383 71.5732C235.16 71.8779 234.988 72.25 234.864 72.6895C234.741 73.1289 234.68 73.6357 234.68 74.21V74.5791C234.68 75.0303 234.741 75.4551 234.864 75.8535C234.993 76.2461 235.178 76.5918 235.418 76.8906C235.664 77.1895 235.96 77.4238 236.306 77.5938C236.657 77.7637 237.056 77.8486 237.501 77.8486C238.075 77.8486 238.562 77.7314 238.96 77.4971C239.359 77.2627 239.707 76.9492 240.006 76.5566L240.99 77.3389C240.785 77.6494 240.525 77.9453 240.208 78.2266C239.892 78.5078 239.502 78.7363 239.039 78.9121C238.582 79.0879 238.04 79.1758 237.413 79.1758ZM248.48 77.5322L251.082 69.4902H252.743L249.324 79H248.234L248.48 77.5322ZM246.31 69.4902L248.99 77.5762L249.175 79H248.085L244.64 69.4902H246.31ZM260.831 79.1758C260.169 79.1758 259.568 79.0645 259.029 78.8418C258.496 78.6133 258.036 78.2939 257.649 77.8838C257.268 77.4736 256.975 76.9873 256.77 76.4248C256.565 75.8623 256.463 75.2471 256.463 74.5791V74.21C256.463 73.4365 256.577 72.748 256.805 72.1445C257.034 71.5352 257.345 71.0195 257.737 70.5977C258.13 70.1758 258.575 69.8564 259.073 69.6396C259.571 69.4229 260.087 69.3145 260.62 69.3145C261.3 69.3145 261.886 69.4316 262.378 69.666C262.876 69.9004 263.283 70.2285 263.599 70.6504C263.916 71.0664 264.15 71.5586 264.303 72.127C264.455 72.6895 264.531 73.3047 264.531 73.9727V74.7021H257.43V73.375H262.905V73.252C262.882 72.8301 262.794 72.4199 262.641 72.0215C262.495 71.623 262.261 71.2949 261.938 71.0371C261.616 70.7793 261.177 70.6504 260.62 70.6504C260.251 70.6504 259.911 70.7295 259.6 70.8877C259.29 71.04 259.023 71.2686 258.801 71.5732C258.578 71.8779 258.405 72.25 258.282 72.6895C258.159 73.1289 258.097 73.6357 258.097 74.21V74.5791C258.097 75.0303 258.159 75.4551 258.282 75.8535C258.411 76.2461 258.596 76.5918 258.836 76.8906C259.082 77.1895 259.378 77.4238 259.723 77.5938C260.075 77.7637 260.473 77.8486 260.919 77.8486C261.493 77.8486 261.979 77.7314 262.378 77.4971C262.776 77.2627 263.125 76.9492 263.424 76.5566L264.408 77.3389C264.203 77.6494 263.942 77.9453 263.626 78.2266C263.309 78.5078 262.92 78.7363 262.457 78.9121C262 79.0879 261.458 79.1758 260.831 79.1758ZM270.896 65.5V79H269.261V65.5H270.896ZM275.776 74.3506V74.1484C275.776 73.4629 275.875 72.8271 276.075 72.2412C276.274 71.6494 276.561 71.1367 276.936 70.7031C277.311 70.2637 277.765 69.9238 278.298 69.6836C278.831 69.4375 279.429 69.3145 280.091 69.3145C280.759 69.3145 281.36 69.4375 281.893 69.6836C282.432 69.9238 282.889 70.2637 283.264 70.7031C283.645 71.1367 283.935 71.6494 284.134 72.2412C284.333 72.8271 284.433 73.4629 284.433 74.1484V74.3506C284.433 75.0361 284.333 75.6719 284.134 76.2578C283.935 76.8438 283.645 77.3564 283.264 77.7959C282.889 78.2295 282.435 78.5693 281.902 78.8154C281.374 79.0557 280.777 79.1758 280.109 79.1758C279.441 79.1758 278.84 79.0557 278.307 78.8154C277.774 78.5693 277.317 78.2295 276.936 77.7959C276.561 77.3564 276.274 76.8438 276.075 76.2578C275.875 75.6719 275.776 75.0361 275.776 74.3506ZM277.402 74.1484V74.3506C277.402 74.8252 277.457 75.2734 277.569 75.6953C277.68 76.1113 277.847 76.4805 278.07 76.8027C278.298 77.125 278.582 77.3799 278.922 77.5674C279.262 77.749 279.658 77.8398 280.109 77.8398C280.554 77.8398 280.944 77.749 281.278 77.5674C281.618 77.3799 281.899 77.125 282.121 76.8027C282.344 76.4805 282.511 76.1113 282.622 75.6953C282.74 75.2734 282.798 74.8252 282.798 74.3506V74.1484C282.798 73.6797 282.74 73.2373 282.622 72.8213C282.511 72.3994 282.341 72.0273 282.113 71.7051C281.89 71.377 281.609 71.1191 281.269 70.9316C280.935 70.7441 280.542 70.6504 280.091 70.6504C279.646 70.6504 279.253 70.7441 278.913 70.9316C278.579 71.1191 278.298 71.377 278.07 71.7051C277.847 72.0273 277.68 72.3994 277.569 72.8213C277.457 73.2373 277.402 73.6797 277.402 74.1484ZM290.798 71.3184V82.6562H289.163V69.4902H290.657L290.798 71.3184ZM297.205 74.166V74.3506C297.205 75.042 297.123 75.6836 296.959 76.2754C296.795 76.8613 296.555 77.3711 296.238 77.8047C295.928 78.2383 295.544 78.5752 295.087 78.8154C294.63 79.0557 294.106 79.1758 293.514 79.1758C292.91 79.1758 292.377 79.0762 291.914 78.877C291.451 78.6777 291.059 78.3877 290.737 78.0068C290.414 77.626 290.156 77.1689 289.963 76.6357C289.776 76.1025 289.647 75.502 289.576 74.834V73.8496C289.647 73.1465 289.779 72.5166 289.972 71.96C290.165 71.4033 290.42 70.9287 290.737 70.5361C291.059 70.1377 291.448 69.8359 291.905 69.6309C292.363 69.4199 292.89 69.3145 293.488 69.3145C294.085 69.3145 294.615 69.4316 295.078 69.666C295.541 69.8945 295.931 70.2227 296.247 70.6504C296.564 71.0781 296.801 71.5908 296.959 72.1885C297.123 72.7803 297.205 73.4395 297.205 74.166ZM295.571 74.3506V74.166C295.571 73.6914 295.521 73.2461 295.421 72.8301C295.321 72.4082 295.166 72.0391 294.955 71.7227C294.75 71.4004 294.487 71.1484 294.164 70.9668C293.842 70.7793 293.458 70.6855 293.013 70.6855C292.603 70.6855 292.245 70.7559 291.941 70.8965C291.642 71.0371 291.387 71.2275 291.176 71.4678C290.965 71.7021 290.792 71.9717 290.657 72.2764C290.529 72.5752 290.432 72.8857 290.367 73.208V75.4844C290.485 75.8945 290.649 76.2812 290.86 76.6445C291.071 77.002 291.352 77.292 291.703 77.5146C292.055 77.7314 292.497 77.8398 293.03 77.8398C293.47 77.8398 293.848 77.749 294.164 77.5674C294.487 77.3799 294.75 77.125 294.955 76.8027C295.166 76.4805 295.321 76.1113 295.421 75.6953C295.521 75.2734 295.571 74.8252 295.571 74.3506ZM305.926 79.1758C305.264 79.1758 304.663 79.0645 304.124 78.8418C303.591 78.6133 303.131 78.2939 302.744 77.8838C302.363 77.4736 302.07 76.9873 301.865 76.4248C301.66 75.8623 301.558 75.2471 301.558 74.5791V74.21C301.558 73.4365 301.672 72.748 301.9 72.1445C302.129 71.5352 302.439 71.0195 302.832 70.5977C303.225 70.1758 303.67 69.8564 304.168 69.6396C304.666 69.4229 305.182 69.3145 305.715 69.3145C306.395 69.3145 306.98 69.4316 307.473 69.666C307.971 69.9004 308.378 70.2285 308.694 70.6504C309.011 71.0664 309.245 71.5586 309.397 72.127C309.55 72.6895 309.626 73.3047 309.626 73.9727V74.7021H302.524V73.375H308V73.252C307.977 72.8301 307.889 72.4199 307.736 72.0215C307.59 71.623 307.355 71.2949 307.033 71.0371C306.711 70.7793 306.271 70.6504 305.715 70.6504C305.346 70.6504 305.006 70.7295 304.695 70.8877C304.385 71.04 304.118 71.2686 303.896 71.5732C303.673 71.8779 303.5 72.25 303.377 72.6895C303.254 73.1289 303.192 73.6357 303.192 74.21V74.5791C303.192 75.0303 303.254 75.4551 303.377 75.8535C303.506 76.2461 303.69 76.5918 303.931 76.8906C304.177 77.1895 304.473 77.4238 304.818 77.5938C305.17 77.7637 305.568 77.8486 306.014 77.8486C306.588 77.8486 307.074 77.7314 307.473 77.4971C307.871 77.2627 308.22 76.9492 308.519 76.5566L309.503 77.3389C309.298 77.6494 309.037 77.9453 308.721 78.2266C308.404 78.5078 308.015 78.7363 307.552 78.9121C307.095 79.0879 306.553 79.1758 305.926 79.1758ZM315.85 70.9844V79H314.224V69.4902H315.806L315.85 70.9844ZM318.821 69.4375L318.812 70.9492C318.678 70.9199 318.549 70.9023 318.426 70.8965C318.308 70.8848 318.174 70.8789 318.021 70.8789C317.646 70.8789 317.315 70.9375 317.028 71.0547C316.741 71.1719 316.498 71.3359 316.299 71.5469C316.099 71.7578 315.941 72.0098 315.824 72.3027C315.713 72.5898 315.639 72.9062 315.604 73.252L315.147 73.5156C315.147 72.9414 315.203 72.4023 315.314 71.8984C315.431 71.3945 315.61 70.9492 315.85 70.5625C316.091 70.1699 316.395 69.8652 316.764 69.6484C317.139 69.4258 317.585 69.3145 318.1 69.3145C318.218 69.3145 318.352 69.3291 318.505 69.3584C318.657 69.3818 318.763 69.4082 318.821 69.4375Z" fill="#2E2F31"/>
<path d="M232.075 3.04688V13H229.675V3.04688H232.075ZM238.015 3.04688L234.16 8.0918L231.904 10.5596L231.466 8.3584L232.909 6.1709L235.055 3.04688H238.015ZM235.178 13L232.608 8.51562L234.474 7.1416L238.015 13H235.178ZM244.818 3.04688L241.414 13.8545H239.773L243.178 3.04688H244.818ZM250.145 3.04688L246.74 13.8545H245.1L248.504 3.04688H250.145ZM258.206 10.3545C258.206 10.1995 258.183 10.0605 258.137 9.9375C258.092 9.8099 258.007 9.69141 257.884 9.58203C257.761 9.47266 257.584 9.36328 257.351 9.25391C257.123 9.13997 256.823 9.02148 256.449 8.89844C256.011 8.7526 255.59 8.58854 255.184 8.40625C254.779 8.2194 254.416 8.00293 254.097 7.75684C253.778 7.50618 253.525 7.21452 253.338 6.88184C253.152 6.5446 253.058 6.15267 253.058 5.70605C253.058 5.27767 253.154 4.89258 253.345 4.55078C253.537 4.20443 253.803 3.91048 254.145 3.66895C254.491 3.42285 254.897 3.236 255.362 3.1084C255.827 2.97624 256.335 2.91016 256.886 2.91016C257.615 2.91016 258.258 3.03776 258.814 3.29297C259.375 3.54362 259.812 3.90137 260.127 4.36621C260.446 4.8265 260.605 5.37109 260.605 6H258.219C258.219 5.74935 258.167 5.52832 258.062 5.33691C257.962 5.14551 257.809 4.99512 257.604 4.88574C257.399 4.77637 257.142 4.72168 256.832 4.72168C256.531 4.72168 256.278 4.76725 256.073 4.8584C255.868 4.94954 255.713 5.07259 255.608 5.22754C255.503 5.37793 255.451 5.54427 255.451 5.72656C255.451 5.87695 255.492 6.01367 255.574 6.13672C255.66 6.25521 255.781 6.36686 255.936 6.47168C256.096 6.5765 256.287 6.67676 256.51 6.77246C256.738 6.86816 256.993 6.96159 257.276 7.05273C257.805 7.22135 258.274 7.41048 258.684 7.62012C259.099 7.8252 259.448 8.0599 259.73 8.32422C260.017 8.58398 260.234 8.88021 260.379 9.21289C260.53 9.54557 260.605 9.92155 260.605 10.3408C260.605 10.7874 260.518 11.1839 260.345 11.5303C260.172 11.8766 259.924 12.1706 259.6 12.4121C259.277 12.6491 258.889 12.8291 258.438 12.9521C257.987 13.0752 257.483 13.1367 256.927 13.1367C256.417 13.1367 255.913 13.0729 255.417 12.9453C254.924 12.8132 254.478 12.6126 254.077 12.3438C253.676 12.0703 253.354 11.7217 253.113 11.2979C252.876 10.8695 252.757 10.3613 252.757 9.77344H255.164C255.164 10.0651 255.202 10.3112 255.28 10.5117C255.357 10.7122 255.471 10.874 255.622 10.9971C255.772 11.1156 255.957 11.2021 256.175 11.2568C256.394 11.307 256.645 11.332 256.927 11.332C257.233 11.332 257.479 11.2887 257.666 11.2021C257.852 11.111 257.989 10.9925 258.076 10.8467C258.162 10.6963 258.206 10.5322 258.206 10.3545Z" fill="#2E2F31"/>
<line y1="9" x2="220" y2="9" stroke="#2E2F31" stroke-width="2"/>
<line y1="94" x2="490.001" y2="94" stroke="#2E2F31" stroke-width="2"/>
<line x1="155" y1="94" x2="335" y2="94" stroke="#2E2F31" stroke-width="4"/>
<line x1="270" y1="9" x2="490" y2="9" stroke="#2E2F31" stroke-width="2"/>
</svg>
