<svg width="491" height="106" viewBox="0 0 491 106" fill="none" xmlns="http://www.w3.org/2000/svg">
<path d="M72.2727 53.6484L70.5852 55.5V60H66.4719V42.9375H70.5852V50.4609L72.0148 48.293L75.6945 42.9375H80.7805L75.0148 50.4844L80.7805 60H75.9055L72.2727 53.6484ZM91.7633 53.9766H89.5367V60H85.4234V42.9375H92.1383C94.1617 42.9375 95.7438 43.3867 96.8844 44.2852C98.025 45.1836 98.5953 46.4531 98.5953 48.0938C98.5953 49.2812 98.3531 50.2656 97.8688 51.0469C97.3922 51.8281 96.6422 52.4609 95.6188 52.9453L99.1813 59.8242V60H94.775L91.7633 53.9766ZM89.5367 50.8008H92.1383C92.9195 50.8008 93.5055 50.5977 93.8961 50.1914C94.2945 49.7773 94.4938 49.2031 94.4938 48.4688C94.4938 47.7344 94.2945 47.1602 93.8961 46.7461C93.4977 46.3242 92.9117 46.1133 92.1383 46.1133H89.5367V50.8008ZM109.297 56.8359H117.453V60H104.164V57.832L112.297 46.1133H104.117V42.9375H117.371V45.0469L109.297 56.8359ZM129.174 50.3438L132.315 42.9375H136.756L131.26 53.8711V60H127.088V53.8711L121.604 42.9375H126.022L129.174 50.3438ZM150.212 55.4648C150.212 54.8633 149.997 54.3945 149.567 54.0586C149.145 53.7227 148.399 53.375 147.329 53.0156C146.259 52.6562 145.384 52.3086 144.704 51.9727C142.493 50.8867 141.388 49.3945 141.388 47.4961C141.388 46.5508 141.661 45.7188 142.208 45C142.763 44.2734 143.544 43.7109 144.552 43.3125C145.559 42.9062 146.692 42.7031 147.95 42.7031C149.177 42.7031 150.274 42.9219 151.243 43.3594C152.22 43.7969 152.977 44.4219 153.516 45.2344C154.055 46.0391 154.325 46.9609 154.325 48H150.223C150.223 47.3047 150.009 46.7656 149.579 46.3828C149.157 46 148.583 45.8086 147.856 45.8086C147.122 45.8086 146.54 45.9727 146.11 46.3008C145.688 46.6211 145.477 47.0312 145.477 47.5312C145.477 47.9688 145.712 48.3672 146.18 48.7266C146.649 49.0781 147.473 49.4453 148.653 49.8281C149.833 50.2031 150.802 50.6094 151.559 51.0469C153.403 52.1094 154.325 53.5742 154.325 55.4414C154.325 56.9336 153.763 58.1055 152.638 58.957C151.513 59.8086 149.97 60.2344 148.009 60.2344C146.626 60.2344 145.372 59.9883 144.247 59.4961C143.13 58.9961 142.286 58.3164 141.716 57.457C141.153 56.5898 140.872 55.5938 140.872 54.4688H144.997C144.997 55.3828 145.231 56.0586 145.7 56.4961C146.177 56.9258 146.946 57.1406 148.009 57.1406C148.688 57.1406 149.223 56.9961 149.614 56.707C150.013 56.4102 150.212 55.9961 150.212 55.4648ZM164.652 56.8359H172.808V60H159.519V57.832L167.652 46.1133H159.472V42.9375H172.726V45.0469L164.652 56.8359ZM191.677 46.1133H186.556V60H182.443V46.1133H177.416V42.9375H191.677V46.1133ZM211.145 51.8203C211.145 53.4844 210.836 54.957 210.219 56.2383C209.602 57.5195 208.723 58.5078 207.582 59.2031C206.449 59.8906 205.156 60.2344 203.703 60.2344C202.25 60.2344 200.961 59.9023 199.836 59.2383C198.711 58.5664 197.832 57.6094 197.199 56.3672C196.574 55.125 196.246 53.6992 196.215 52.0898V51.1289C196.215 49.457 196.52 47.9844 197.129 46.7109C197.746 45.4297 198.625 44.4414 199.766 43.7461C200.914 43.0508 202.219 42.7031 203.68 42.7031C205.125 42.7031 206.414 43.0469 207.547 43.7344C208.68 44.4219 209.559 45.4023 210.184 46.6758C210.816 47.9414 211.137 49.3945 211.145 51.0352V51.8203ZM206.961 51.1055C206.961 49.4102 206.676 48.125 206.105 47.25C205.543 46.3672 204.734 45.9258 203.68 45.9258C201.617 45.9258 200.527 47.4727 200.41 50.5664L200.398 51.8203C200.398 53.4922 200.676 54.7773 201.23 55.6758C201.785 56.5742 202.609 57.0234 203.703 57.0234C204.742 57.0234 205.543 56.582 206.105 55.6992C206.668 54.8164 206.953 53.5469 206.961 51.8906V51.1055ZM227.612 53.2031H220.979V60H216.866V42.9375H228.28V46.1133H220.979V50.0391H227.612V53.2031ZM251.968 55.4648C251.968 54.8633 251.753 54.3945 251.323 54.0586C250.902 53.7227 250.155 53.375 249.085 53.0156C248.015 52.6562 247.14 52.3086 246.46 51.9727C244.249 50.8867 243.144 49.3945 243.144 47.4961C243.144 46.5508 243.417 45.7188 243.964 45C244.519 44.2734 245.3 43.7109 246.308 43.3125C247.316 42.9062 248.448 42.7031 249.706 42.7031C250.933 42.7031 252.03 42.9219 252.999 43.3594C253.976 43.7969 254.734 44.4219 255.273 45.2344C255.812 46.0391 256.081 46.9609 256.081 48H251.98C251.98 47.3047 251.765 46.7656 251.335 46.3828C250.913 46 250.339 45.8086 249.613 45.8086C248.878 45.8086 248.296 45.9727 247.866 46.3008C247.445 46.6211 247.234 47.0312 247.234 47.5312C247.234 47.9688 247.468 48.3672 247.937 48.7266C248.405 49.0781 249.23 49.4453 250.409 49.8281C251.589 50.2031 252.558 50.6094 253.316 51.0469C255.159 52.1094 256.081 53.5742 256.081 55.4414C256.081 56.9336 255.519 58.1055 254.394 58.957C253.269 59.8086 251.726 60.2344 249.765 60.2344C248.382 60.2344 247.128 59.9883 246.003 59.4961C244.886 58.9961 244.042 58.3164 243.472 57.457C242.909 56.5898 242.628 55.5938 242.628 54.4688H246.753C246.753 55.3828 246.988 56.0586 247.456 56.4961C247.933 56.9258 248.702 57.1406 249.765 57.1406C250.445 57.1406 250.98 56.9961 251.37 56.707C251.769 56.4102 251.968 55.9961 251.968 55.4648ZM266.408 56.8359H274.564V60H261.275V57.832L269.408 46.1133H261.228V42.9375H274.482V45.0469L266.408 56.8359ZM285.84 53.6484L284.152 55.5V60H280.039V42.9375H284.152V50.4609L285.582 48.293L289.262 42.9375H294.348L288.582 50.4844L294.348 60H289.473L285.84 53.6484ZM312.373 42.9375V54.1055C312.373 55.3711 312.104 56.4688 311.565 57.3984C311.026 58.3203 310.252 59.0234 309.245 59.5078C308.237 59.9922 307.045 60.2344 305.67 60.2344C303.592 60.2344 301.955 59.6953 300.76 58.6172C299.565 57.5391 298.955 56.0625 298.932 54.1875V42.9375H303.069V54.2695C303.116 56.1367 303.983 57.0703 305.67 57.0703C306.522 57.0703 307.166 56.8359 307.604 56.3672C308.041 55.8984 308.26 55.1367 308.26 54.082V42.9375H312.373ZM318.552 60V42.9375H324.048C325.555 42.9375 326.911 43.2812 328.114 43.9688C329.317 44.6484 330.255 45.6133 330.927 46.8633C331.606 48.1055 331.95 49.5 331.958 51.0469V51.832C331.958 53.3945 331.626 54.7969 330.962 56.0391C330.305 57.2734 329.376 58.2422 328.173 58.9453C326.977 59.6406 325.641 59.9922 324.165 60H318.552ZM322.665 46.1133V56.8359H324.095C325.274 56.8359 326.18 56.418 326.813 55.582C327.446 54.7383 327.763 53.4883 327.763 51.832V51.0938C327.763 49.4453 327.446 48.2031 326.813 47.3672C326.18 46.5312 325.259 46.1133 324.048 46.1133H322.665ZM341.78 56.8359H348.941V60H337.667V42.9375H341.78V56.8359ZM364.201 56.8125H358.564L357.58 60H353.185L359.443 42.9375H363.31L369.615 60H365.197L364.201 56.8125ZM359.548 53.6367H363.216L361.377 47.7188L359.548 53.6367ZM380.809 53.9766H378.582V60H374.469V42.9375H381.184C383.207 42.9375 384.789 43.3867 385.93 44.2852C387.07 45.1836 387.641 46.4531 387.641 48.0938C387.641 49.2812 387.398 50.2656 386.914 51.0469C386.438 51.8281 385.688 52.4609 384.664 52.9453L388.227 59.8242V60H383.82L380.809 53.9766ZM378.582 50.8008H381.184C381.965 50.8008 382.551 50.5977 382.941 50.1914C383.34 49.7773 383.539 49.2031 383.539 48.4688C383.539 47.7344 383.34 47.1602 382.941 46.7461C382.543 46.3242 381.957 46.1133 381.184 46.1133H378.582V50.8008ZM404.307 52.7695H397.838V56.8359H405.479V60H393.725V42.9375H405.502V46.1133H397.838V49.7109H404.307V52.7695ZM416.555 53.6484L414.868 55.5V60H410.755V42.9375H414.868V50.4609L416.298 48.293L419.977 42.9375H425.063L419.298 50.4844L425.063 60H420.188L416.555 53.6484Z" fill="#2E2F31"/>
<path d="M174.563 87.3125L177.006 79.4902H178.078L177.867 81.0459L175.38 89H174.334L174.563 87.3125ZM172.919 79.4902L175.002 87.4004L175.152 89H174.053L171.293 79.4902H172.919ZM180.416 87.3389L182.403 79.4902H184.02L181.26 89H180.17L180.416 87.3389ZM178.316 79.4902L180.706 87.1807L180.979 89H179.942L177.384 81.0283L177.173 79.4902H178.316ZM192.336 89.1758C191.674 89.1758 191.073 89.0645 190.534 88.8418C190.001 88.6133 189.541 88.2939 189.154 87.8838C188.773 87.4736 188.48 86.9873 188.275 86.4248C188.07 85.8623 187.968 85.2471 187.968 84.5791V84.21C187.968 83.4365 188.082 82.748 188.311 82.1445C188.539 81.5352 188.85 81.0195 189.242 80.5977C189.635 80.1758 190.08 79.8564 190.578 79.6396C191.076 79.4229 191.592 79.3145 192.125 79.3145C192.805 79.3145 193.391 79.4316 193.883 79.666C194.381 79.9004 194.788 80.2285 195.104 80.6504C195.421 81.0664 195.655 81.5586 195.808 82.127C195.96 82.6895 196.036 83.3047 196.036 83.9727V84.7021H188.935V83.375H194.41V83.252C194.387 82.8301 194.299 82.4199 194.146 82.0215C194 81.623 193.766 81.2949 193.443 81.0371C193.121 80.7793 192.682 80.6504 192.125 80.6504C191.756 80.6504 191.416 80.7295 191.105 80.8877C190.795 81.04 190.528 81.2686 190.306 81.5732C190.083 81.8779 189.91 82.25 189.787 82.6895C189.664 83.1289 189.603 83.6357 189.603 84.21V84.5791C189.603 85.0303 189.664 85.4551 189.787 85.8535C189.916 86.2461 190.101 86.5918 190.341 86.8906C190.587 87.1895 190.883 87.4238 191.229 87.5938C191.58 87.7637 191.979 87.8486 192.424 87.8486C192.998 87.8486 193.484 87.7314 193.883 87.4971C194.281 87.2627 194.63 86.9492 194.929 86.5566L195.913 87.3389C195.708 87.6494 195.447 87.9453 195.131 88.2266C194.814 88.5078 194.425 88.7363 193.962 88.9121C193.505 89.0879 192.963 89.1758 192.336 89.1758ZM200.626 75.5H202.261V87.1543L202.12 89H200.626V75.5ZM208.685 84.166V84.3506C208.685 85.042 208.603 85.6836 208.439 86.2754C208.275 86.8613 208.035 87.3711 207.719 87.8047C207.402 88.2383 207.015 88.5752 206.558 88.8154C206.101 89.0557 205.577 89.1758 204.985 89.1758C204.382 89.1758 203.851 89.0732 203.394 88.8682C202.943 88.6572 202.562 88.3555 202.252 87.9629C201.941 87.5703 201.692 87.0957 201.505 86.5391C201.323 85.9824 201.197 85.3555 201.127 84.6582V83.8496C201.197 83.1465 201.323 82.5166 201.505 81.96C201.692 81.4033 201.941 80.9287 202.252 80.5361C202.562 80.1377 202.943 79.8359 203.394 79.6309C203.846 79.4199 204.37 79.3145 204.968 79.3145C205.565 79.3145 206.096 79.4316 206.558 79.666C207.021 79.8945 207.408 80.2227 207.719 80.6504C208.035 81.0781 208.275 81.5908 208.439 82.1885C208.603 82.7803 208.685 83.4395 208.685 84.166ZM207.051 84.3506V84.166C207.051 83.6914 207.007 83.2461 206.919 82.8301C206.831 82.4082 206.69 82.0391 206.497 81.7227C206.304 81.4004 206.049 81.1484 205.732 80.9668C205.416 80.7793 205.026 80.6855 204.563 80.6855C204.153 80.6855 203.796 80.7559 203.491 80.8965C203.192 81.0371 202.937 81.2275 202.726 81.4678C202.515 81.7021 202.343 81.9717 202.208 82.2764C202.079 82.5752 201.982 82.8857 201.918 83.208V85.3262C202.012 85.7363 202.164 86.1318 202.375 86.5127C202.592 86.8877 202.879 87.1953 203.236 87.4355C203.599 87.6758 204.048 87.7959 204.581 87.7959C205.02 87.7959 205.395 87.708 205.706 87.5322C206.022 87.3506 206.277 87.1016 206.471 86.7852C206.67 86.4688 206.816 86.1025 206.91 85.6865C207.004 85.2705 207.051 84.8252 207.051 84.3506ZM226.601 87.1543V75.5H228.236V89H226.742L226.601 87.1543ZM220.203 84.3506V84.166C220.203 83.4395 220.29 82.7803 220.466 82.1885C220.648 81.5908 220.903 81.0781 221.231 80.6504C221.565 80.2227 221.96 79.8945 222.417 79.666C222.88 79.4316 223.396 79.3145 223.964 79.3145C224.562 79.3145 225.083 79.4199 225.529 79.6309C225.98 79.8359 226.361 80.1377 226.671 80.5361C226.988 80.9287 227.237 81.4033 227.418 81.96C227.6 82.5166 227.726 83.1465 227.796 83.8496V84.6582C227.732 85.3555 227.606 85.9824 227.418 86.5391C227.237 87.0957 226.988 87.5703 226.671 87.9629C226.361 88.3555 225.98 88.6572 225.529 88.8682C225.078 89.0732 224.55 89.1758 223.947 89.1758C223.39 89.1758 222.88 89.0557 222.417 88.8154C221.96 88.5752 221.565 88.2383 221.231 87.8047C220.903 87.3711 220.648 86.8613 220.466 86.2754C220.29 85.6836 220.203 85.042 220.203 84.3506ZM221.837 84.166V84.3506C221.837 84.8252 221.884 85.2705 221.978 85.6865C222.078 86.1025 222.23 86.4688 222.435 86.7852C222.64 87.1016 222.901 87.3506 223.217 87.5322C223.534 87.708 223.912 87.7959 224.351 87.7959C224.89 87.7959 225.332 87.6816 225.678 87.4531C226.03 87.2246 226.311 86.9229 226.522 86.5479C226.733 86.1729 226.897 85.7656 227.014 85.3262V83.208C226.944 82.8857 226.841 82.5752 226.706 82.2764C226.578 81.9717 226.408 81.7021 226.197 81.4678C225.992 81.2275 225.737 81.0371 225.432 80.8965C225.133 80.7559 224.779 80.6855 224.369 80.6855C223.923 80.6855 223.539 80.7793 223.217 80.9668C222.901 81.1484 222.64 81.4004 222.435 81.7227C222.23 82.0391 222.078 82.4082 221.978 82.8301C221.884 83.2461 221.837 83.6914 221.837 84.166ZM237.413 89.1758C236.751 89.1758 236.151 89.0645 235.612 88.8418C235.078 88.6133 234.618 88.2939 234.232 87.8838C233.851 87.4736 233.558 86.9873 233.353 86.4248C233.148 85.8623 233.045 85.2471 233.045 84.5791V84.21C233.045 83.4365 233.159 82.748 233.388 82.1445C233.616 81.5352 233.927 81.0195 234.32 80.5977C234.712 80.1758 235.157 79.8564 235.655 79.6396C236.154 79.4229 236.669 79.3145 237.202 79.3145C237.882 79.3145 238.468 79.4316 238.96 79.666C239.458 79.9004 239.865 80.2285 240.182 80.6504C240.498 81.0664 240.733 81.5586 240.885 82.127C241.037 82.6895 241.113 83.3047 241.113 83.9727V84.7021H234.012V83.375H239.488V83.252C239.464 82.8301 239.376 82.4199 239.224 82.0215C239.077 81.623 238.843 81.2949 238.521 81.0371C238.198 80.7793 237.759 80.6504 237.202 80.6504C236.833 80.6504 236.493 80.7295 236.183 80.8877C235.872 81.04 235.606 81.2686 235.383 81.5732C235.16 81.8779 234.988 82.25 234.864 82.6895C234.741 83.1289 234.68 83.6357 234.68 84.21V84.5791C234.68 85.0303 234.741 85.4551 234.864 85.8535C234.993 86.2461 235.178 86.5918 235.418 86.8906C235.664 87.1895 235.96 87.4238 236.306 87.5938C236.657 87.7637 237.056 87.8486 237.501 87.8486C238.075 87.8486 238.562 87.7314 238.96 87.4971C239.359 87.2627 239.707 86.9492 240.006 86.5566L240.99 87.3389C240.785 87.6494 240.525 87.9453 240.208 88.2266C239.892 88.5078 239.502 88.7363 239.039 88.9121C238.582 89.0879 238.04 89.1758 237.413 89.1758ZM248.48 87.5322L251.082 79.4902H252.743L249.324 89H248.234L248.48 87.5322ZM246.31 79.4902L248.99 87.5762L249.175 89H248.085L244.64 79.4902H246.31ZM260.831 89.1758C260.169 89.1758 259.568 89.0645 259.029 88.8418C258.496 88.6133 258.036 88.2939 257.649 87.8838C257.268 87.4736 256.975 86.9873 256.77 86.4248C256.565 85.8623 256.463 85.2471 256.463 84.5791V84.21C256.463 83.4365 256.577 82.748 256.805 82.1445C257.034 81.5352 257.345 81.0195 257.737 80.5977C258.13 80.1758 258.575 79.8564 259.073 79.6396C259.571 79.4229 260.087 79.3145 260.62 79.3145C261.3 79.3145 261.886 79.4316 262.378 79.666C262.876 79.9004 263.283 80.2285 263.599 80.6504C263.916 81.0664 264.15 81.5586 264.303 82.127C264.455 82.6895 264.531 83.3047 264.531 83.9727V84.7021H257.43V83.375H262.905V83.252C262.882 82.8301 262.794 82.4199 262.641 82.0215C262.495 81.623 262.261 81.2949 261.938 81.0371C261.616 80.7793 261.177 80.6504 260.62 80.6504C260.251 80.6504 259.911 80.7295 259.6 80.8877C259.29 81.04 259.023 81.2686 258.801 81.5732C258.578 81.8779 258.405 82.25 258.282 82.6895C258.159 83.1289 258.097 83.6357 258.097 84.21V84.5791C258.097 85.0303 258.159 85.4551 258.282 85.8535C258.411 86.2461 258.596 86.5918 258.836 86.8906C259.082 87.1895 259.378 87.4238 259.723 87.5938C260.075 87.7637 260.473 87.8486 260.919 87.8486C261.493 87.8486 261.979 87.7314 262.378 87.4971C262.776 87.2627 263.125 86.9492 263.424 86.5566L264.408 87.3389C264.203 87.6494 263.942 87.9453 263.626 88.2266C263.309 88.5078 262.92 88.7363 262.457 88.9121C262 89.0879 261.458 89.1758 260.831 89.1758ZM270.896 75.5V89H269.261V75.5H270.896ZM275.776 84.3506V84.1484C275.776 83.4629 275.875 82.8271 276.075 82.2412C276.274 81.6494 276.561 81.1367 276.936 80.7031C277.311 80.2637 277.765 79.9238 278.298 79.6836C278.831 79.4375 279.429 79.3145 280.091 79.3145C280.759 79.3145 281.36 79.4375 281.893 79.6836C282.432 79.9238 282.889 80.2637 283.264 80.7031C283.645 81.1367 283.935 81.6494 284.134 82.2412C284.333 82.8271 284.433 83.4629 284.433 84.1484V84.3506C284.433 85.0361 284.333 85.6719 284.134 86.2578C283.935 86.8438 283.645 87.3564 283.264 87.7959C282.889 88.2295 282.435 88.5693 281.902 88.8154C281.374 89.0557 280.777 89.1758 280.109 89.1758C279.441 89.1758 278.84 89.0557 278.307 88.8154C277.774 88.5693 277.317 88.2295 276.936 87.7959C276.561 87.3564 276.274 86.8438 276.075 86.2578C275.875 85.6719 275.776 85.0361 275.776 84.3506ZM277.402 84.1484V84.3506C277.402 84.8252 277.457 85.2734 277.569 85.6953C277.68 86.1113 277.847 86.4805 278.07 86.8027C278.298 87.125 278.582 87.3799 278.922 87.5674C279.262 87.749 279.658 87.8398 280.109 87.8398C280.554 87.8398 280.944 87.749 281.278 87.5674C281.618 87.3799 281.899 87.125 282.121 86.8027C282.344 86.4805 282.511 86.1113 282.622 85.6953C282.74 85.2734 282.798 84.8252 282.798 84.3506V84.1484C282.798 83.6797 282.74 83.2373 282.622 82.8213C282.511 82.3994 282.341 82.0273 282.113 81.7051C281.89 81.377 281.609 81.1191 281.269 80.9316C280.935 80.7441 280.542 80.6504 280.091 80.6504C279.646 80.6504 279.253 80.7441 278.913 80.9316C278.579 81.1191 278.298 81.377 278.07 81.7051C277.847 82.0273 277.68 82.3994 277.569 82.8213C277.457 83.2373 277.402 83.6797 277.402 84.1484ZM290.798 81.3184V92.6562H289.163V79.4902H290.657L290.798 81.3184ZM297.205 84.166V84.3506C297.205 85.042 297.123 85.6836 296.959 86.2754C296.795 86.8613 296.555 87.3711 296.238 87.8047C295.928 88.2383 295.544 88.5752 295.087 88.8154C294.63 89.0557 294.106 89.1758 293.514 89.1758C292.91 89.1758 292.377 89.0762 291.914 88.877C291.451 88.6777 291.059 88.3877 290.737 88.0068C290.414 87.626 290.156 87.1689 289.963 86.6357C289.776 86.1025 289.647 85.502 289.576 84.834V83.8496C289.647 83.1465 289.779 82.5166 289.972 81.96C290.165 81.4033 290.42 80.9287 290.737 80.5361C291.059 80.1377 291.448 79.8359 291.905 79.6309C292.363 79.4199 292.89 79.3145 293.488 79.3145C294.085 79.3145 294.615 79.4316 295.078 79.666C295.541 79.8945 295.931 80.2227 296.247 80.6504C296.564 81.0781 296.801 81.5908 296.959 82.1885C297.123 82.7803 297.205 83.4395 297.205 84.166ZM295.571 84.3506V84.166C295.571 83.6914 295.521 83.2461 295.421 82.8301C295.321 82.4082 295.166 82.0391 294.955 81.7227C294.75 81.4004 294.487 81.1484 294.164 80.9668C293.842 80.7793 293.458 80.6855 293.013 80.6855C292.603 80.6855 292.245 80.7559 291.941 80.8965C291.642 81.0371 291.387 81.2275 291.176 81.4678C290.965 81.7021 290.792 81.9717 290.657 82.2764C290.529 82.5752 290.432 82.8857 290.367 83.208V85.4844C290.485 85.8945 290.649 86.2812 290.86 86.6445C291.071 87.002 291.352 87.292 291.703 87.5146C292.055 87.7314 292.497 87.8398 293.03 87.8398C293.47 87.8398 293.848 87.749 294.164 87.5674C294.487 87.3799 294.75 87.125 294.955 86.8027C295.166 86.4805 295.321 86.1113 295.421 85.6953C295.521 85.2734 295.571 84.8252 295.571 84.3506ZM305.926 89.1758C305.264 89.1758 304.663 89.0645 304.124 88.8418C303.591 88.6133 303.131 88.2939 302.744 87.8838C302.363 87.4736 302.07 86.9873 301.865 86.4248C301.66 85.8623 301.558 85.2471 301.558 84.5791V84.21C301.558 83.4365 301.672 82.748 301.9 82.1445C302.129 81.5352 302.439 81.0195 302.832 80.5977C303.225 80.1758 303.67 79.8564 304.168 79.6396C304.666 79.4229 305.182 79.3145 305.715 79.3145C306.395 79.3145 306.98 79.4316 307.473 79.666C307.971 79.9004 308.378 80.2285 308.694 80.6504C309.011 81.0664 309.245 81.5586 309.397 82.127C309.55 82.6895 309.626 83.3047 309.626 83.9727V84.7021H302.524V83.375H308V83.252C307.977 82.8301 307.889 82.4199 307.736 82.0215C307.59 81.623 307.355 81.2949 307.033 81.0371C306.711 80.7793 306.271 80.6504 305.715 80.6504C305.346 80.6504 305.006 80.7295 304.695 80.8877C304.385 81.04 304.118 81.2686 303.896 81.5732C303.673 81.8779 303.5 82.25 303.377 82.6895C303.254 83.1289 303.192 83.6357 303.192 84.21V84.5791C303.192 85.0303 303.254 85.4551 303.377 85.8535C303.506 86.2461 303.69 86.5918 303.931 86.8906C304.177 87.1895 304.473 87.4238 304.818 87.5938C305.17 87.7637 305.568 87.8486 306.014 87.8486C306.588 87.8486 307.074 87.7314 307.473 87.4971C307.871 87.2627 308.22 86.9492 308.519 86.5566L309.503 87.3389C309.298 87.6494 309.037 87.9453 308.721 88.2266C308.404 88.5078 308.015 88.7363 307.552 88.9121C307.095 89.0879 306.553 89.1758 305.926 89.1758ZM315.85 80.9844V89H314.224V79.4902H315.806L315.85 80.9844ZM318.821 79.4375L318.812 80.9492C318.678 80.9199 318.549 80.9023 318.426 80.8965C318.308 80.8848 318.174 80.8789 318.021 80.8789C317.646 80.8789 317.315 80.9375 317.028 81.0547C316.741 81.1719 316.498 81.3359 316.299 81.5469C316.099 81.7578 315.941 82.0098 315.824 82.3027C315.713 82.5898 315.639 82.9062 315.604 83.252L315.147 83.5156C315.147 82.9414 315.203 82.4023 315.314 81.8984C315.431 81.3945 315.61 80.9492 315.85 80.5625C316.091 80.1699 316.395 79.8652 316.764 79.6484C317.139 79.4258 317.585 79.3145 318.1 79.3145C318.218 79.3145 318.352 79.3291 318.505 79.3584C318.657 79.3818 318.763 79.4082 318.821 79.4375Z" fill="#2E2F31"/>
<path d="M233.052 21.2949L232.068 22.375V25H229.668V15.0469H232.068V19.4355L232.902 18.1709L235.048 15.0469H238.015L234.652 19.4492L238.015 25H235.171L233.052 21.2949ZM241.407 25.8545H239.773L243.171 15.0469H244.811L241.407 25.8545ZM246.734 25.8545H245.1L248.497 15.0469H250.138L246.734 25.8545ZM258.206 22.3545C258.206 22.0036 258.08 21.7301 257.83 21.5342C257.584 21.3382 257.148 21.1354 256.524 20.9258C255.9 20.7161 255.389 20.5133 254.993 20.3174C253.703 19.6839 253.058 18.8135 253.058 17.7061C253.058 17.1546 253.218 16.6693 253.537 16.25C253.86 15.8262 254.316 15.498 254.904 15.2656C255.492 15.0286 256.153 14.9102 256.886 14.9102C257.602 14.9102 258.242 15.0378 258.807 15.293C259.377 15.5482 259.819 15.9128 260.133 16.3867C260.448 16.8561 260.605 17.3939 260.605 18H258.213C258.213 17.5944 258.087 17.2799 257.837 17.0566C257.59 16.8333 257.255 16.7217 256.832 16.7217C256.403 16.7217 256.064 16.8174 255.813 17.0088C255.567 17.1956 255.444 17.4349 255.444 17.7266C255.444 17.9818 255.581 18.2142 255.854 18.4238C256.128 18.6289 256.608 18.8431 257.296 19.0664C257.985 19.2852 258.55 19.5221 258.992 19.7773C260.067 20.3971 260.605 21.2516 260.605 22.3408C260.605 23.2113 260.277 23.8949 259.621 24.3916C258.964 24.8883 258.064 25.1367 256.921 25.1367C256.114 25.1367 255.382 24.9932 254.726 24.7061C254.074 24.4144 253.582 24.0179 253.25 23.5166C252.921 23.0107 252.757 22.4297 252.757 21.7734H255.164C255.164 22.3066 255.3 22.7008 255.574 22.9561C255.852 23.2067 256.301 23.332 256.921 23.332C257.317 23.332 257.629 23.2477 257.857 23.0791C258.089 22.9059 258.206 22.6644 258.206 22.3545Z" fill="#2E2F31"/>
<line y1="19" x2="220" y2="19" stroke="#2E2F31" stroke-width="2"/>
<line y1="104" x2="490.001" y2="104" stroke="#2E2F31" stroke-width="2"/>
<line x1="155" y1="104" x2="335" y2="104" stroke="#2E2F31" stroke-width="4"/>
<line x1="270" y1="19" x2="490" y2="19" stroke="#2E2F31" stroke-width="2"/>
</svg>
